<svg width="835" height="207" viewBox="0 0 835 207" fill="none" xmlns="http://www.w3.org/2000/svg">
<path d="M31.968 2.30399H0L31.104 203.904H78.336L109.44 2.30399H80.352L56.16 166.752L31.968 2.30399Z" fill="#EFE8F4"/>
<path d="M170.307 31.104H225.027V2.30399H138.627V203.904H225.027V175.104H170.307V116.064H213.795V87.264H170.307V31.104Z" fill="#EFE8F4"/>
<path d="M326.738 203.904H359.282V2.30399H331.058V122.976L298.514 2.30399H258.77V203.904H287.282V57.888L326.738 203.904Z" fill="#EFE8F4"/>
<path d="M425.453 48.672C425.453 34.272 431.789 28.8 441.869 28.8C451.949 28.8 458.285 34.272 458.285 48.672V157.536C458.285 171.936 451.949 177.408 441.869 177.408C431.789 177.408 425.453 171.936 425.453 157.536V48.672ZM393.773 155.52C393.773 187.776 410.765 206.208 441.869 206.208C472.973 206.208 489.965 187.776 489.965 155.52V50.688C489.965 18.432 472.973 0 441.869 0C410.765 0 393.773 18.432 393.773 50.688V155.52Z" fill="#EFE8F4"/>
<path d="M568.728 2.30399H524.664V203.904H552.312V61.344L575.928 203.904H605.88L627.768 59.328V203.904H657.72V2.30399H613.656L592.056 145.44L568.728 2.30399Z" fill="#EFE8F4"/>
<path d="M802.667 51.84C802.667 110.016 739.883 119.808 739.883 179.136V203.904H831.467V175.104H771.563C771.275 173.664 771.275 172.224 771.275 170.784C771.275 137.664 834.347 114.048 834.347 50.688C834.347 18.432 818.219 0 787.115 0C756.011 0 739.883 18.432 739.883 50.688V70.272H769.835V48.672C769.835 34.272 776.171 28.8 786.251 28.8C796.331 28.8 802.667 33.696 802.667 51.84Z" fill="#EFE8F4"/>
</svg>
